<svg xmlns="http://www.w3.org/2000/svg" width="32" height="32" version="1" id="food">
  <path fill="#24c4bc" d="M32 16c0 8.836-7.164 16-16 16S0 24.836 0 16 7.164 0 16 0s16 7.164 16 16z"></path>
  <path d="M18.38 31.76c.278-.042.572-.028.845-.084a15.887 15.887 0 0 0 5.72-2.408 16.083 16.083 0 0 0 2.367-1.956 15.953 15.953 0 0 0 4.363-8.088c.019-.088.012-.184.028-.273l-7.828-7.828a.273.273 0 0 0-.188-.084c-.059 0-.114.034-.162.074l-.457-.457a.283.283 0 0 0-.195-.094c-.204.068-.271.136-.271.272v.562l-.3-.298a.23.23 0 0 0-.245-.059c-.136 0-.203.136-.203.272v1.97c0 .13.027.246.072.354.013.031.034.056.05.086.04.071.084.14.14.199.007.008.01.02.019.03l.467.466v1.863l-3.356-3.355-.014-.012-.003-.004a4.15 4.15 0 0 0-.59-.484l-.006-.002c-.106-.072-.225-.124-.338-.186-.12-.066-.234-.143-.361-.197a4.063 4.063 0 0 0-1.586-.32c-.841 0-1.625.258-2.276.695-.084.057-.156.129-.236.191l-3.129-3.128c-.204-.204-.474-.34-.746-.34s-.544.136-.748.34c-.204.135-.341.407-.545.68-.34.475-.543 1.153-.611 1.697-.068.543.068 1.088.34 1.564.044.055.091.107.142.158l1.014 1.014v2.633c-.068 0-.069.068-.137.068-.136.068-.203.204-.203.408 0 1.563-.205 2.72-.205 4.418 0 .204.137.407.273.543l9.1 9.1z" opacity=".25"></path>
  <path fill="#fff" d="M9.96 9.136c-.272 0-.544.136-.748.34-.203.136-.34.407-.543.68-.34.475-.544 1.155-.612 1.698-.068.544.068 1.088.34 1.563.272.34.68.612 1.155.68v3.126c-.068 0-.068.068-.136.068-.136.068-.204.204-.204.408 0 1.563-.203 2.719-.203 4.418 0 .203.136.407.271.543.136.136.34.204.544.204a.772.772 0 0 0 .544-.204c.136-.136.272-.272.272-.475 0-1.428-.136-3.059-.136-4.418 0-.204-.136-.34-.204-.408-.068-.068-.068-.068-.204-.068v-3.126c.544-.068.951-.272 1.223-.612.272-.34.272-.747.34-1.155v-.136c.068-.612-.204-1.291-.476-1.835a1.573 1.573 0 0 0-.475-.951c-.204-.204-.476-.34-.748-.34zm12.913 1.427c-.204.068-.272.136-.272.272v2.718a.374.374 0 0 1-.204-.34v-1.902c0-.136-.136-.34-.34-.272-.136 0-.204.136-.204.272v1.97c0 .476.34.816.748.952v2.922c-.068 0-.068.068-.136.068-.136.068-.204.204-.204.476 0 1.563-.136 2.719-.136 4.418 0 .203.136.407.272.543.136.136.34.204.544.204.204 0 .34-.068.476-.204.135-.136.271-.272.271-.543 0-1.428-.136-3.059-.136-4.418 0-.204-.135-.34-.203-.476-.068-.068-.068-.068-.136-.068v-2.922c.407-.136.747-.476.747-.951V11.31a.292.292 0 0 0-.272-.272.292.292 0 0 0-.271.272v1.97a.374.374 0 0 1-.204.34v-2.718c-.068-.204-.204-.34-.34-.34zm-6.525 1.155c-2.242 0-4.077 1.835-4.077 4.01s1.835 4.01 4.077 4.01c2.243 0 4.078-1.835 4.078-4.01s-1.835-4.01-4.078-4.01zm0 .544a3.48 3.48 0 0 1 3.467 3.466 3.48 3.48 0 0 1-3.467 3.466c-1.902 0-3.534-1.563-3.534-3.466.068-1.903 1.632-3.466 3.534-3.466zm0 .816a2.654 2.654 0 0 0-2.65 2.65 2.654 2.654 0 0 0 2.65 2.65c1.496 0 2.719-1.223 2.719-2.65 0-1.427-1.223-2.65-2.719-2.65z"></path>
</svg>
